<mxfile host="app.diagrams.net" agent="Mozilla/5.0 (Windows NT 10.0; Win64; x64) AppleWebKit/537.36 (KHTML, like Gecko) Chrome/129.0.0.0 Safari/537.36 Edg/129.0.0.0" version="24.7.16">
  <diagram name="Seite-1" id="dqsLzKi4FgeO7Q9_Gg5U">
    <mxGraphModel dx="2253" dy="1950" grid="1" gridSize="10" guides="1" tooltips="1" connect="1" arrows="1" fold="1" page="1" pageScale="1" pageWidth="827" pageHeight="1169" math="0" shadow="0">
      <root>
        <mxCell id="0" />
        <mxCell id="1" parent="0" />
        <mxCell id="J-38YoUWlMMychKlFMu8-59" style="rounded=0;orthogonalLoop=1;jettySize=auto;html=1;strokeColor=default;entryX=0;entryY=0.5;entryDx=0;entryDy=0;exitX=1;exitY=0.5;exitDx=0;exitDy=0;" edge="1" parent="1" source="2" target="J-38YoUWlMMychKlFMu8-57">
          <mxGeometry relative="1" as="geometry" />
        </mxCell>
        <mxCell id="J-38YoUWlMMychKlFMu8-64" style="rounded=0;orthogonalLoop=1;jettySize=auto;html=1;entryX=0;entryY=0.5;entryDx=0;entryDy=0;exitX=1;exitY=0.5;exitDx=0;exitDy=0;" edge="1" parent="1" source="2" target="J-38YoUWlMMychKlFMu8-61">
          <mxGeometry relative="1" as="geometry" />
        </mxCell>
        <mxCell id="J-38YoUWlMMychKlFMu8-65" style="rounded=0;orthogonalLoop=1;jettySize=auto;html=1;entryX=0;entryY=0.5;entryDx=0;entryDy=0;exitX=1;exitY=0.5;exitDx=0;exitDy=0;" edge="1" parent="1" source="2" target="J-38YoUWlMMychKlFMu8-62">
          <mxGeometry relative="1" as="geometry" />
        </mxCell>
        <mxCell id="2" value="DCÂ Gateway" style="whiteSpace=wrap;strokeWidth=2;labelBackgroundColor=none;labelBorderColor=none;horizontal=1;fontSize=13;fillColor=#dae8fc;strokeColor=#6c8ebf;" parent="1" vertex="1">
          <mxGeometry x="-390" y="206" width="142" height="49" as="geometry" />
        </mxCell>
        <mxCell id="J-38YoUWlMMychKlFMu8-72" style="edgeStyle=orthogonalEdgeStyle;rounded=0;orthogonalLoop=1;jettySize=auto;html=1;entryX=0;entryY=0.5;entryDx=0;entryDy=0;" edge="1" parent="1" source="J-38YoUWlMMychKlFMu8-57" target="J-38YoUWlMMychKlFMu8-68">
          <mxGeometry relative="1" as="geometry" />
        </mxCell>
        <mxCell id="J-38YoUWlMMychKlFMu8-81" value="AMQP: GW Events Queue #0" style="edgeLabel;html=1;align=center;verticalAlign=middle;resizable=0;points=[];" vertex="1" connectable="0" parent="J-38YoUWlMMychKlFMu8-72">
          <mxGeometry x="0.0238" y="2" relative="1" as="geometry">
            <mxPoint as="offset" />
          </mxGeometry>
        </mxCell>
        <mxCell id="J-38YoUWlMMychKlFMu8-57" value="Worker #0 (Shards 0-3)" style="rounded=0;whiteSpace=wrap;html=1;fillColor=#d5e8d4;strokeColor=#82b366;" vertex="1" parent="1">
          <mxGeometry x="-160" y="40" width="160" height="60" as="geometry" />
        </mxCell>
        <mxCell id="J-38YoUWlMMychKlFMu8-74" style="edgeStyle=orthogonalEdgeStyle;rounded=0;orthogonalLoop=1;jettySize=auto;html=1;entryX=0;entryY=0.5;entryDx=0;entryDy=0;" edge="1" parent="1" source="J-38YoUWlMMychKlFMu8-61" target="J-38YoUWlMMychKlFMu8-70">
          <mxGeometry relative="1" as="geometry" />
        </mxCell>
        <mxCell id="J-38YoUWlMMychKlFMu8-79" value="AMQP: GW Events Queue #2" style="edgeLabel;html=1;align=center;verticalAlign=middle;resizable=0;points=[];" vertex="1" connectable="0" parent="J-38YoUWlMMychKlFMu8-74">
          <mxGeometry x="0.0303" y="-1" relative="1" as="geometry">
            <mxPoint as="offset" />
          </mxGeometry>
        </mxCell>
        <mxCell id="J-38YoUWlMMychKlFMu8-61" value="Worker #2 (Shards 8-11)" style="rounded=0;whiteSpace=wrap;html=1;fillColor=#d5e8d4;strokeColor=#82b366;" vertex="1" parent="1">
          <mxGeometry x="-160" y="259" width="160" height="60" as="geometry" />
        </mxCell>
        <mxCell id="J-38YoUWlMMychKlFMu8-75" style="edgeStyle=orthogonalEdgeStyle;rounded=0;orthogonalLoop=1;jettySize=auto;html=1;" edge="1" parent="1" source="J-38YoUWlMMychKlFMu8-62" target="J-38YoUWlMMychKlFMu8-71">
          <mxGeometry relative="1" as="geometry" />
        </mxCell>
        <mxCell id="J-38YoUWlMMychKlFMu8-76" value="AMQP: GW Events Queue#3" style="edgeLabel;html=1;align=center;verticalAlign=middle;resizable=0;points=[];" vertex="1" connectable="0" parent="J-38YoUWlMMychKlFMu8-75">
          <mxGeometry x="0.1569" y="1" relative="1" as="geometry">
            <mxPoint x="-13" y="1" as="offset" />
          </mxGeometry>
        </mxCell>
        <mxCell id="J-38YoUWlMMychKlFMu8-62" value="Worker #3&lt;span style=&quot;background-color: initial;&quot;&gt;&amp;nbsp;(Shards 12-15)&lt;/span&gt;" style="rounded=0;whiteSpace=wrap;html=1;fillColor=#d5e8d4;strokeColor=#82b366;" vertex="1" parent="1">
          <mxGeometry x="-160" y="379" width="160" height="60" as="geometry" />
        </mxCell>
        <mxCell id="J-38YoUWlMMychKlFMu8-63" value="" style="curved=1;startArrow=none;endArrow=block;exitX=1;exitY=0.5;entryX=0;entryY=0.5;entryDx=0;entryDy=0;exitDx=0;exitDy=0;" edge="1" parent="1" source="2" target="J-38YoUWlMMychKlFMu8-60">
          <mxGeometry relative="1" as="geometry">
            <Array as="points" />
            <mxPoint x="107" y="308" as="sourcePoint" />
            <mxPoint x="634" y="107" as="targetPoint" />
          </mxGeometry>
        </mxCell>
        <mxCell id="J-38YoUWlMMychKlFMu8-73" style="edgeStyle=orthogonalEdgeStyle;rounded=0;orthogonalLoop=1;jettySize=auto;html=1;" edge="1" parent="1" source="J-38YoUWlMMychKlFMu8-60" target="J-38YoUWlMMychKlFMu8-69">
          <mxGeometry relative="1" as="geometry" />
        </mxCell>
        <mxCell id="J-38YoUWlMMychKlFMu8-80" value="AMQP: GW Events Queue #1" style="edgeLabel;html=1;align=center;verticalAlign=middle;resizable=0;points=[];" vertex="1" connectable="0" parent="J-38YoUWlMMychKlFMu8-73">
          <mxGeometry x="0.0174" y="-3" relative="1" as="geometry">
            <mxPoint as="offset" />
          </mxGeometry>
        </mxCell>
        <mxCell id="J-38YoUWlMMychKlFMu8-60" value="Worker #1 (Shards 4-7)" style="rounded=0;whiteSpace=wrap;html=1;fillColor=#d5e8d4;strokeColor=#82b366;" vertex="1" parent="1">
          <mxGeometry x="-160" y="140" width="160" height="60" as="geometry" />
        </mxCell>
        <mxCell id="J-38YoUWlMMychKlFMu8-68" value="Bot #0" style="rounded=0;whiteSpace=wrap;html=1;fillColor=#ffe6cc;strokeColor=#d79b00;" vertex="1" parent="1">
          <mxGeometry x="240" y="40" width="120" height="60" as="geometry" />
        </mxCell>
        <mxCell id="J-38YoUWlMMychKlFMu8-69" value="Bot #1" style="rounded=0;whiteSpace=wrap;html=1;fillColor=#ffe6cc;strokeColor=#d79b00;" vertex="1" parent="1">
          <mxGeometry x="240" y="140" width="120" height="60" as="geometry" />
        </mxCell>
        <mxCell id="J-38YoUWlMMychKlFMu8-70" value="Bot #2" style="rounded=0;whiteSpace=wrap;html=1;fillColor=#ffe6cc;strokeColor=#d79b00;" vertex="1" parent="1">
          <mxGeometry x="240" y="259" width="120" height="60" as="geometry" />
        </mxCell>
        <mxCell id="J-38YoUWlMMychKlFMu8-71" value="Bot #3" style="rounded=0;whiteSpace=wrap;html=1;fillColor=#ffe6cc;strokeColor=#d79b00;" vertex="1" parent="1">
          <mxGeometry x="240" y="379" width="120" height="60" as="geometry" />
        </mxCell>
        <mxCell id="J-38YoUWlMMychKlFMu8-82" value="MongoDB Database" style="rounded=0;whiteSpace=wrap;html=1;fillColor=#f8cecc;strokeColor=#b85450;fontStyle=1" vertex="1" parent="1">
          <mxGeometry x="726" y="-584" width="160" height="60" as="geometry" />
        </mxCell>
        <mxCell id="J-38YoUWlMMychKlFMu8-96" value="" style="group;fillColor=#e1d5e7;strokeColor=#9673a6;" vertex="1" connectable="0" parent="1">
          <mxGeometry x="300" y="-584" width="320" height="341" as="geometry" />
        </mxCell>
        <mxCell id="J-38YoUWlMMychKlFMu8-84" value="Redis #0" style="rounded=0;whiteSpace=wrap;html=1;fillColor=#fff2cc;strokeColor=#d6b656;" vertex="1" parent="J-38YoUWlMMychKlFMu8-96">
          <mxGeometry x="20" y="60" width="120" height="60" as="geometry" />
        </mxCell>
        <mxCell id="J-38YoUWlMMychKlFMu8-86" value="Redis #1" style="rounded=0;whiteSpace=wrap;html=1;fillColor=#fff2cc;strokeColor=#d6b656;" vertex="1" parent="J-38YoUWlMMychKlFMu8-96">
          <mxGeometry x="20" y="130" width="120" height="60" as="geometry" />
        </mxCell>
        <mxCell id="J-38YoUWlMMychKlFMu8-87" value="Redis #2" style="rounded=0;whiteSpace=wrap;html=1;fillColor=#fff2cc;strokeColor=#d6b656;" vertex="1" parent="J-38YoUWlMMychKlFMu8-96">
          <mxGeometry x="20" y="200" width="120" height="60" as="geometry" />
        </mxCell>
        <mxCell id="J-38YoUWlMMychKlFMu8-88" value="Redis #3" style="rounded=0;whiteSpace=wrap;html=1;fillColor=#fff2cc;strokeColor=#d6b656;" vertex="1" parent="J-38YoUWlMMychKlFMu8-96">
          <mxGeometry x="20" y="270" width="120" height="60" as="geometry" />
        </mxCell>
        <mxCell id="J-38YoUWlMMychKlFMu8-90" value="Master Nodes" style="text;html=1;align=center;verticalAlign=middle;whiteSpace=wrap;rounded=0;" vertex="1" parent="J-38YoUWlMMychKlFMu8-96">
          <mxGeometry x="20" y="30" width="120" height="30" as="geometry" />
        </mxCell>
        <mxCell id="J-38YoUWlMMychKlFMu8-91" value="Redis #7" style="rounded=0;whiteSpace=wrap;html=1;fillColor=#fff2cc;strokeColor=#d6b656;" vertex="1" parent="J-38YoUWlMMychKlFMu8-96">
          <mxGeometry x="180" y="270" width="120" height="60" as="geometry" />
        </mxCell>
        <mxCell id="J-38YoUWlMMychKlFMu8-92" value="Redis #6" style="rounded=0;whiteSpace=wrap;html=1;fillColor=#fff2cc;strokeColor=#d6b656;" vertex="1" parent="J-38YoUWlMMychKlFMu8-96">
          <mxGeometry x="180" y="200" width="120" height="60" as="geometry" />
        </mxCell>
        <mxCell id="J-38YoUWlMMychKlFMu8-93" value="Redis #5" style="rounded=0;whiteSpace=wrap;html=1;fillColor=#fff2cc;strokeColor=#d6b656;" vertex="1" parent="J-38YoUWlMMychKlFMu8-96">
          <mxGeometry x="180" y="130" width="120" height="60" as="geometry" />
        </mxCell>
        <mxCell id="J-38YoUWlMMychKlFMu8-94" value="Redis #4" style="rounded=0;whiteSpace=wrap;html=1;fillColor=#fff2cc;strokeColor=#d6b656;" vertex="1" parent="J-38YoUWlMMychKlFMu8-96">
          <mxGeometry x="180" y="60" width="120" height="60" as="geometry" />
        </mxCell>
        <mxCell id="J-38YoUWlMMychKlFMu8-95" value="Slave Nodes" style="text;html=1;align=center;verticalAlign=middle;whiteSpace=wrap;rounded=0;" vertex="1" parent="J-38YoUWlMMychKlFMu8-96">
          <mxGeometry x="180" y="30" width="120" height="30" as="geometry" />
        </mxCell>
        <mxCell id="J-38YoUWlMMychKlFMu8-85" value="&lt;font style=&quot;font-size: 14px;&quot;&gt;&lt;b&gt;Redis Cluster&lt;/b&gt;&lt;/font&gt;" style="rounded=0;whiteSpace=wrap;html=1;labelBackgroundColor=none;fontColor=default;fillColor=none;verticalAlign=top;" vertex="1" parent="J-38YoUWlMMychKlFMu8-96">
          <mxGeometry width="320" height="341" as="geometry" />
        </mxCell>
        <mxCell id="J-38YoUWlMMychKlFMu8-102" style="edgeStyle=orthogonalEdgeStyle;rounded=0;orthogonalLoop=1;jettySize=auto;html=1;entryX=0.5;entryY=0;entryDx=0;entryDy=0;" edge="1" parent="1" source="J-38YoUWlMMychKlFMu8-99" target="J-38YoUWlMMychKlFMu8-85">
          <mxGeometry relative="1" as="geometry">
            <Array as="points">
              <mxPoint x="540" y="-120" />
              <mxPoint x="640" y="-120" />
              <mxPoint x="640" y="-604" />
              <mxPoint x="460" y="-604" />
            </Array>
          </mxGeometry>
        </mxCell>
        <mxCell id="J-38YoUWlMMychKlFMu8-103" style="edgeStyle=orthogonalEdgeStyle;rounded=0;orthogonalLoop=1;jettySize=auto;html=1;entryX=0.5;entryY=1;entryDx=0;entryDy=0;exitX=0.5;exitY=0;exitDx=0;exitDy=0;" edge="1" parent="1" source="J-38YoUWlMMychKlFMu8-99" target="J-38YoUWlMMychKlFMu8-82">
          <mxGeometry relative="1" as="geometry">
            <Array as="points">
              <mxPoint x="540" y="-120" />
              <mxPoint x="806" y="-120" />
            </Array>
          </mxGeometry>
        </mxCell>
        <mxCell id="J-38YoUWlMMychKlFMu8-104" style="edgeStyle=orthogonalEdgeStyle;rounded=0;orthogonalLoop=1;jettySize=auto;html=1;" edge="1" parent="1" source="J-38YoUWlMMychKlFMu8-99" target="J-38YoUWlMMychKlFMu8-100">
          <mxGeometry relative="1" as="geometry" />
        </mxCell>
        <mxCell id="J-38YoUWlMMychKlFMu8-99" value="Data Handler" style="rounded=0;whiteSpace=wrap;html=1;" vertex="1" parent="1">
          <mxGeometry x="480" y="40" width="120" height="60" as="geometry" />
        </mxCell>
        <mxCell id="J-38YoUWlMMychKlFMu8-100" value="In-Memory" style="rounded=0;whiteSpace=wrap;html=1;" vertex="1" parent="1">
          <mxGeometry x="480" y="120" width="120" height="60" as="geometry" />
        </mxCell>
        <mxCell id="J-38YoUWlMMychKlFMu8-105" value="Nirn Rest Proxy" style="rounded=0;whiteSpace=wrap;html=1;fontStyle=1;fontSize=14;fillColor=#dae8fc;strokeColor=#6c8ebf;" vertex="1" parent="1">
          <mxGeometry x="470" y="320" width="120" height="60" as="geometry" />
        </mxCell>
      </root>
    </mxGraphModel>
  </diagram>
</mxfile>
